<?xml version="1.0" encoding="UTF-8" standalone="no"?>
<!-- Created with Inkscape (http://www.inkscape.org/) -->

<svg
   xmlns:dc="http://purl.org/dc/elements/1.1/"
   xmlns:cc="http://creativecommons.org/ns#"
   xmlns:rdf="http://www.w3.org/1999/02/22-rdf-syntax-ns#"
   xmlns:svg="http://www.w3.org/2000/svg"
   xmlns="http://www.w3.org/2000/svg"
   xmlns:sodipodi="http://sodipodi.sourceforge.net/DTD/sodipodi-0.dtd"
   xmlns:inkscape="http://www.inkscape.org/namespaces/inkscape"
   width="130mm"
   height="130mm"
   viewBox="0 0 130 130"
   version="1.1"
   id="svg7188"
   inkscape:version="0.92.3 (2405546, 2018-03-11)"
   sodipodi:docname="N.svg">
  <defs
     id="defs7182" />
  <sodipodi:namedview
     id="base"
     pagecolor="#ffffff"
     bordercolor="#666666"
     borderopacity="1.0"
     inkscape:pageopacity="0.0"
     inkscape:pageshadow="2"
     inkscape:zoom="0.35"
     inkscape:cx="-70"
     inkscape:cy="560"
     inkscape:document-units="mm"
     inkscape:current-layer="layer1"
     showgrid="false"
     inkscape:window-width="2400"
     inkscape:window-height="1271"
     inkscape:window-x="-9"
     inkscape:window-y="-9"
     inkscape:window-maximized="1" />
  <metadata
     id="metadata7185">
    <rdf:RDF>
      <cc:Work
         rdf:about="">
        <dc:format>image/svg+xml</dc:format>
        <dc:type
           rdf:resource="http://purl.org/dc/dcmitype/StillImage" />
        <dc:title></dc:title>
      </cc:Work>
    </rdf:RDF>
  </metadata>
  <g
     inkscape:label="Layer 1"
     inkscape:groupmode="layer"
     id="layer1"
     transform="translate(0,-167)">
    <g
       id="g4337"
       transform="translate(-1042.6978,759.84414)">
      <path
         id="path1336"
         d="m 1133.4862,-516.54957 -23.9664,-34.42074 -5.5412,34.38462 9.4977,13.59498 z"
         style="font-style:normal;font-variant:normal;font-weight:bold;font-stretch:normal;font-size:medium;line-height:1.25;font-family:'Sitka Text';-inkscape-font-specification:'Sitka Text Bold';letter-spacing:0px;word-spacing:0px;fill:#ff2a2a;fill-opacity:1;stroke:none;stroke-width:1.84828603"
         inkscape:connector-curvature="0" />
      <path
         id="path1334"
         d="m 1156.0194,-531.81601 v -36.75995 c 0,-1.05148 0.3185,-1.83876 0.9494,-2.3645 0.6308,-0.52602 1.3144,-0.94809 2.0504,-1.26349 l 12.1439,-5.20194 v -6.78306 h -45.0304 v 6.78306 l 12.0644,5.20194 c 0.9463,0.42053 1.6836,0.86971 2.2093,1.34292 0.5784,0.47293 0.8664,1.23359 0.8664,2.28507 v 46.75222 z"
         style="font-style:normal;font-variant:normal;font-weight:bold;font-stretch:normal;font-size:medium;line-height:1.25;font-family:'Sitka Text';-inkscape-font-specification:'Sitka Text Bold';letter-spacing:0px;word-spacing:0px;fill:#0044aa;fill-opacity:1;stroke:none;stroke-width:1.84828603"
         inkscape:connector-curvature="0" />
      <path
         id="path1332"
         d="m 1135.3344,-471.69975 0.9711,1.38616 h 17.2699 l 2.444,-18.29877 v -16.67781 z"
         style="font-style:normal;font-variant:normal;font-weight:bold;font-stretch:normal;font-size:medium;line-height:1.25;font-family:'Sitka Text';-inkscape-font-specification:'Sitka Text Bold';letter-spacing:0px;word-spacing:0px;fill:#660080;fill-opacity:1;stroke:none;stroke-width:1.84828603"
         inkscape:connector-curvature="0" />
      <path
         id="path1330"
         d="m 1135.3344,-471.69975 20.685,-33.59042 v -26.52584 l -14.7466,9.99227 v 16.02089 h -1.2599 l -6.0719,-10.09335 -0.4547,-0.65316 -20.0099,13.55893 z"
         style="font-style:normal;font-variant:normal;font-weight:bold;font-stretch:normal;font-size:medium;line-height:1.25;font-family:'Sitka Text';-inkscape-font-specification:'Sitka Text Bold';letter-spacing:0px;word-spacing:0px;fill:#88aa00;fill-opacity:1;stroke:none;stroke-width:1.84828603"
         inkscape:connector-curvature="0" />
      <path
         id="path1328"
         d="m 1061.154,-500.13525 v 13.17989 c 0,1.10408 -0.292,1.94501 -0.87,2.52335 -0.526,0.52602 -1.2093,0.97499 -2.0505,1.34286 l -12.1438,5.20193 v 6.78306 h 44.9508 v -6.78306 l -11.9885,-5.20193 c -0.7886,-0.36815 -1.4954,-0.81712 -2.1263,-1.34286 -0.5784,-0.52602 -0.87,-1.36674 -0.87,-2.52335 v -9.96342 z"
         style="font-style:normal;font-variant:normal;font-weight:bold;font-stretch:normal;font-size:medium;line-height:1.25;font-family:'Sitka Text';-inkscape-font-specification:'Sitka Text Bold';letter-spacing:0px;word-spacing:0px;fill:#d4aa00;fill-opacity:1;stroke:none;stroke-width:1.84828603"
         inkscape:connector-curvature="0" />
      <path
         id="path1326"
         d="m 1091.7048,-576.55392 -5.3175,-7.63503 h -40.7705 v 6.78306 l 12.6167,4.72901 c 0.7887,0.26266 1.4721,0.68529 2.0505,1.26349 0.5784,0.57841 0.87,1.39245 0.87,2.44393 v 12.8369 l 0.6566,-0.19141 z"
         style="font-style:normal;font-variant:normal;font-weight:bold;font-stretch:normal;font-size:medium;line-height:1.25;font-family:'Sitka Text';-inkscape-font-specification:'Sitka Text Bold';letter-spacing:0px;word-spacing:0px;fill:#aa0044;fill-opacity:1;stroke:none;stroke-width:1.84828603"
         inkscape:connector-curvature="0" />
      <path
         id="path853"
         d="m 1091.7048,-576.55392 -29.8938,20.23009 -0.6567,0.19141 v 55.99731 l 14.9018,3.2164 v -59.35454 h 1.2634 l 6.1514,10.3317 20.508,29.35593 5.5413,-34.38462 z"
         style="font-style:normal;font-variant:normal;font-weight:bold;font-stretch:normal;font-size:medium;line-height:1.25;font-family:'Sitka Text';-inkscape-font-specification:'Sitka Text Bold';letter-spacing:0px;word-spacing:0px;fill:#ff6600;fill-opacity:1;stroke:none;stroke-width:1.84828603"
         inkscape:connector-curvature="0" />
    </g>
  </g>
</svg>
