<?xml version="1.0" encoding="UTF-8" standalone="no"?>
<!-- Created with Inkscape (http://www.inkscape.org/) -->

<svg
   xmlns:dc="http://purl.org/dc/elements/1.1/"
   xmlns:cc="http://creativecommons.org/ns#"
   xmlns:rdf="http://www.w3.org/1999/02/22-rdf-syntax-ns#"
   xmlns:svg="http://www.w3.org/2000/svg"
   xmlns="http://www.w3.org/2000/svg"
   xmlns:sodipodi="http://sodipodi.sourceforge.net/DTD/sodipodi-0.dtd"
   xmlns:inkscape="http://www.inkscape.org/namespaces/inkscape"
   width="130mm"
   height="130mm"
   viewBox="0 0 130 130"
   version="1.1"
   id="svg2900"
   inkscape:version="0.92.3 (2405546, 2018-03-11)"
   sodipodi:docname="R.svg">
  <defs
     id="defs2894" />
  <sodipodi:namedview
     id="base"
     pagecolor="#ffffff"
     bordercolor="#666666"
     borderopacity="1.0"
     inkscape:pageopacity="0.0"
     inkscape:pageshadow="2"
     inkscape:zoom="0.35"
     inkscape:cx="-70"
     inkscape:cy="560"
     inkscape:document-units="mm"
     inkscape:current-layer="layer1"
     showgrid="false"
     inkscape:window-width="1444"
     inkscape:window-height="1003"
     inkscape:window-x="64"
     inkscape:window-y="64"
     inkscape:window-maximized="0" />
  <metadata
     id="metadata2897">
    <rdf:RDF>
      <cc:Work
         rdf:about="">
        <dc:format>image/svg+xml</dc:format>
        <dc:type
           rdf:resource="http://purl.org/dc/dcmitype/StillImage" />
        <dc:title></dc:title>
      </cc:Work>
    </rdf:RDF>
  </metadata>
  <g
     inkscape:label="Layer 1"
     inkscape:groupmode="layer"
     id="layer1"
     transform="translate(0,-167)">
    <g
       id="g4369"
       transform="translate(-444.18683,538.5967)">
      <path
         inkscape:connector-curvature="0"
         id="path1295"
         d="m 541.48599,-315.70366 c 1.50024,-2.00551 2.98671,-4.0273 4.02869,-6.55212 1.36688,-3.31203 2.05043,-7.14848 2.05043,-11.51207 0,-2.31323 -0.23821,-4.60186 -0.71114,-6.86249 -0.47293,-2.3133 -1.31414,-4.52132 -2.52335,-6.62421 -1.15662,-2.15556 -2.75808,-4.12558 -4.80844,-5.91307 -2.05035,-1.84009 -4.6539,-3.44518 -7.80827,-4.812 -3.10184,-1.36688 -6.83441,-2.44239 -11.19807,-3.23086 -2.41047,-0.4359 -5.56379,-0.45826 -8.40751,-0.65316 z"
         style="font-style:normal;font-variant:normal;font-weight:bold;font-stretch:normal;font-size:medium;line-height:1.25;font-family:'Sitka Text';-inkscape-font-specification:'Sitka Text Bold';letter-spacing:0px;word-spacing:0px;fill:#0044aa;fill-opacity:1;stroke:none;stroke-width:1.84828603" />
      <path
         inkscape:connector-curvature="0"
         id="path1293"
         d="m 509.92434,-282.17464 14.45415,22.06026 c 1.26174,1.89269 2.31392,3.5246 3.15513,4.89149 0.89375,1.36688 1.89221,2.49597 2.99622,3.38971 1.10408,0.84128 2.44428,1.47111 4.02143,1.89158 1.57722,0.42053 3.70833,0.6315 6.38963,0.6315 h 28.94084 v -6.78307 l -12.06442,-3.78321 c -0.57841,-0.15788 -1.18491,-0.42264 -1.81578,-0.79057 -0.57841,-0.42054 -1.15452,-0.86615 -1.73279,-1.33929 -0.52602,-0.47293 -1.02494,-0.9724 -1.49814,-1.49814 -0.42054,-0.57841 -0.81607,-1.10436 -1.184,-1.5775 l -18.33125,-26.83991 z"
         style="font-style:normal;font-variant:normal;font-weight:bold;font-stretch:normal;font-size:medium;line-height:1.25;font-family:'Sitka Text';-inkscape-font-specification:'Sitka Text Bold';letter-spacing:0px;word-spacing:0px;fill:#88aa00;fill-opacity:1;stroke:none;stroke-width:1.84828603" />
      <path
         inkscape:connector-curvature="0"
         id="path1291"
         d="m 463.58001,-292.21393 v 27.52583 c 0,1.15655 -0.2913,2.02437 -0.86999,2.60271 -0.57841,0.57842 -1.26189,1.02759 -2.05043,1.34286 l -12.14385,4.64964 v 6.78307 h 56.62183 v -6.78307 l -12.38207,-4.64964 c -0.89374,-0.31576 -1.62737,-0.76444 -2.20571,-1.34286 -0.57842,-0.57841 -0.87,-1.44616 -0.87,-2.60271 v -17.08578 z"
         style="font-style:normal;font-variant:normal;font-weight:bold;font-stretch:normal;font-size:medium;line-height:1.25;font-family:'Sitka Text';-inkscape-font-specification:'Sitka Text Bold';letter-spacing:0px;word-spacing:0px;fill:#ff6600;fill-opacity:1;stroke:none;stroke-width:1.84828603" />
      <path
         inkscape:connector-curvature="0"
         id="path1289"
         d="m 463.58001,-325.56244 v 15.6093 l 26.09978,-10.18361 v -5.77224 z"
         style="font-style:normal;font-variant:normal;font-weight:bold;font-stretch:normal;font-size:medium;line-height:1.25;font-family:'Sitka Text';-inkscape-font-specification:'Sitka Text Bold';letter-spacing:0px;word-spacing:0px;fill:#aa0044;fill-opacity:1;stroke:none;stroke-width:1.84828603" />
      <path
         inkscape:connector-curvature="0"
         id="path1287"
         d="m 499.81653,-362.39455 h -51.30079 v 6.78307 l 12.14385,4.65314 c 0.78854,0.26266 1.47209,0.6818 2.05043,1.25993 0.57841,0.57841 0.86999,1.39238 0.86999,2.44386 v 10.08623 z"
         style="font-style:normal;font-variant:normal;font-weight:bold;font-stretch:normal;font-size:medium;line-height:1.25;font-family:'Sitka Text';-inkscape-font-specification:'Sitka Text Bold';letter-spacing:0px;word-spacing:0px;fill:#660080;fill-opacity:1;stroke:none;stroke-width:1.84828603" />
      <path
         inkscape:connector-curvature="0"
         id="path861"
         d="m 499.81653,-362.39455 -36.23652,25.22623 v 11.60588 l 26.09978,-0.34648 v -23.39599 h 9.77935 c 6.62428,0 11.67023,1.5782 15.14007,4.73257 3.46984,3.15444 5.20549,8.17356 5.20549,15.06064 0,2.5761 -0.36884,5.10274 -1.10464,7.5737 -0.73601,2.47096 -1.8651,4.65216 -3.38971,6.54478 -1.52462,1.89262 -3.46782,3.44407 -5.83365,4.65321 -2.36583,1.15662 -5.18049,1.73279 -8.44006,1.73279 -0.6308,0 -1.4987,-0.0209 -2.60271,-0.0761 -1.10408,-0.0559 -2.2331,-0.13343 -3.38972,-0.23821 -1.15661,-0.10548 -2.23562,-0.20887 -3.23456,-0.31436 -0.99888,-0.10548 -1.70925,-0.21236 -2.12986,-0.31784 v -10.18361 l -26.09978,10.18361 v 17.73921 l 26.09978,10.44005 v -17.68877 l 10.72514,2.758 9.51941,14.53001 23.33102,-9.74687 -8.16574,-11.95971 c 2.57617,-0.94627 5.20292,-2.20599 7.88415,-3.78321 2.68123,-1.62969 5.10043,-3.63031 7.25599,-5.99607 0.51275,-0.57491 0.7884,-1.41787 1.25623,-2.04316 l -29.37766,-46.16032 c -2.304,-0.15788 -4.22352,-0.53091 -6.81191,-0.53091 z"
         style="font-style:normal;font-variant:normal;font-weight:bold;font-stretch:normal;font-size:medium;line-height:1.25;font-family:'Sitka Text';-inkscape-font-specification:'Sitka Text Bold';letter-spacing:0px;word-spacing:0px;fill:#ff2a2a;fill-opacity:1;stroke:none;stroke-width:1.84828603" />
    </g>
  </g>
</svg>
