<?xml version="1.0" standalone="no"?>
<!DOCTYPE svg PUBLIC "-//W3C//DTD SVG 20010904//EN"
 "http://www.w3.org/TR/2001/REC-SVG-20010904/DTD/svg10.dtd">
<svg version="1.0" xmlns="http://www.w3.org/2000/svg"
 width="1280.000000pt" height="1280.000000pt" viewBox="0 0 1280.000000 1280.000000"
 preserveAspectRatio="xMidYMid meet">
<g transform="translate(0.000000,1280.000000) scale(0.100000,-0.100000)"
fill="#000000" stroke="none">
<path d="M9740 10524 c-131 -35 -291 -145 -471 -324 -364 -362 -661 -823
-1099 -1705 -103 -209 -235 -483 -293 -610 -108 -235 -582 -1307 -613 -1385
l-17 -43 -126 6 c-546 28 -1756 44 -2046 27 -540 -31 -985 -130 -1410 -315
-533 -231 -1007 -616 -1257 -1018 -235 -377 -320 -857 -227 -1284 74 -343 289
-657 590 -863 95 -65 294 -166 394 -199 342 -113 764 -139 1155 -72 298 52
961 194 1079 233 254 82 458 181 689 335 596 395 1138 1036 1632 1928 86 156
332 644 344 683 6 18 14 22 52 22 24 0 44 -3 44 -7 0 -7 -58 -194 -470 -1513
-234 -750 -253 -826 -252 -1045 0 -98 5 -149 21 -210 75 -288 302 -505 657
-628 363 -126 885 -130 1314 -10 290 81 807 241 895 276 218 88 435 206 660
359 193 131 185 120 185 235 0 87 -13 122 -52 141 -23 11 -60 4 -319 -59
l-293 -72 -151 -84 c-197 -111 -574 -296 -749 -368 -127 -52 -146 -57 -236
-62 -195 -11 -342 27 -425 111 -72 72 -89 130 -83 284 8 187 34 282 333 1202
97 300 201 622 231 715 31 94 82 253 115 355 33 102 69 212 80 246 l19 60 358
13 c196 7 391 19 433 26 123 21 220 79 294 177 88 117 117 216 75 258 -18 18
-35 20 -212 22 -106 1 -325 1 -485 -1 -211 -3 -293 -1 -293 7 0 6 33 114 74
239 41 125 188 577 326 1003 138 426 278 858 311 960 34 102 91 280 129 395
177 542 231 810 200 994 -23 136 -113 274 -221 338 -33 19 -185 74 -381 137
-357 115 -391 121 -508 90z m-1336 -3815 c-58 -167 -109 -307 -112 -311 -4 -4
-17 -5 -28 -2 -20 5 -17 17 68 217 50 117 109 256 131 309 22 54 42 96 44 95
1 -2 -45 -140 -103 -308z m-2561 -510 c332 -34 1204 -145 1216 -155 7 -6 -138
-318 -270 -579 -263 -523 -517 -947 -766 -1280 -343 -460 -713 -786 -1122
-988 -141 -69 -146 -71 -215 -69 -183 6 -346 45 -501 121 -413 203 -617 623
-574 1183 36 484 222 867 578 1192 282 257 613 431 1012 530 162 41 296 64
382 65 31 1 148 -8 260 -20z"/>
</g>
</svg>
