<?xml version="1.0" encoding="UTF-8" standalone="no"?>
<!-- Created with Inkscape (http://www.inkscape.org/) -->

<svg
   xmlns:dc="http://purl.org/dc/elements/1.1/"
   xmlns:cc="http://creativecommons.org/ns#"
   xmlns:rdf="http://www.w3.org/1999/02/22-rdf-syntax-ns#"
   xmlns:svg="http://www.w3.org/2000/svg"
   xmlns="http://www.w3.org/2000/svg"
   xmlns:sodipodi="http://sodipodi.sourceforge.net/DTD/sodipodi-0.dtd"
   xmlns:inkscape="http://www.inkscape.org/namespaces/inkscape"
   width="130mm"
   height="130mm"
   viewBox="0 0 130 130"
   version="1.1"
   id="svg1708"
   inkscape:version="0.92.3 (2405546, 2018-03-11)"
   sodipodi:docname="D.svg">
  <defs
     id="defs1702" />
  <sodipodi:namedview
     id="base"
     pagecolor="#ffffff"
     bordercolor="#666666"
     borderopacity="1.0"
     inkscape:pageopacity="0.0"
     inkscape:pageshadow="2"
     inkscape:zoom="0.35"
     inkscape:cx="-70"
     inkscape:cy="560"
     inkscape:document-units="mm"
     inkscape:current-layer="layer1"
     showgrid="false"
     inkscape:window-width="2400"
     inkscape:window-height="1271"
     inkscape:window-x="-9"
     inkscape:window-y="-9"
     inkscape:window-maximized="1" />
  <metadata
     id="metadata1705">
    <rdf:RDF>
      <cc:Work
         rdf:about="">
        <dc:format>image/svg+xml</dc:format>
        <dc:type
           rdf:resource="http://purl.org/dc/dcmitype/StillImage" />
        <dc:title></dc:title>
      </cc:Work>
    </rdf:RDF>
  </metadata>
  <g
     inkscape:label="Layer 1"
     inkscape:groupmode="layer"
     id="layer1"
     transform="translate(0,-167)">
    <g
       id="g4228"
       transform="translate(-717.42303,981.42897)">
      <path
         inkscape:connector-curvature="0"
         id="path1043"
         d="m 827.67787,-788.38483 -20.41052,13.28454 c 1.4776,2.71671 2.78252,5.63755 3.76156,8.94184 1.49178,4.98817 2.20998,10.67497 2.37896,16.86195 l 27.82894,-4.78314 c -0.32064,-5.54744 -1.02123,-10.71263 -2.44749,-15.15453 -1.84009,-5.73046 -4.31301,-10.69949 -7.41485,-14.90541 -1.13999,-1.54572 -2.42165,-2.89122 -3.6966,-4.24525 z"
         style="font-style:normal;font-variant:normal;font-weight:bold;font-stretch:normal;font-size:medium;line-height:1.25;font-family:'Sitka Text';-inkscape-font-specification:'Sitka Text Bold';letter-spacing:0px;word-spacing:0px;fill:#aa0044;fill-opacity:1;stroke:none;stroke-width:1.84828603" />
      <path
         inkscape:connector-curvature="0"
         id="path1041"
         d="m 793.44491,-804.94724 -1.77247,15.03178 c 0.23891,0.10758 0.51135,0.14251 0.74726,0.25638 4.46872,2.10296 8.25138,5.12516 11.35322,9.06814 1.31868,1.6484 2.43296,3.53914 3.49443,5.49072 l 20.41052,-13.28454 c -2.19398,-2.3302 -4.51426,-4.47927 -7.10789,-6.24161 -4.04819,-2.83897 -8.30685,-5.07388 -12.77557,-6.70364 -4.46879,-1.68235 -8.98864,-2.86509 -13.56256,-3.54857 -0.27524,-0.0419 -0.51345,-0.0279 -0.78694,-0.0698 z"
         style="font-style:normal;font-variant:normal;font-weight:bold;font-stretch:normal;font-size:medium;line-height:1.25;font-family:'Sitka Text';-inkscape-font-specification:'Sitka Text Bold';letter-spacing:0px;word-spacing:0px;fill:#88aa00;fill-opacity:1;stroke:none;stroke-width:1.84828603" />
      <path
         inkscape:connector-curvature="0"
         id="path1039"
         d="m 777.49263,-805.98329 1.40062,13.2304 c 4.62184,0.16277 8.89469,1.08334 12.77919,2.83743 l 1.77247,-15.03178 c -4.22219,-0.64897 -8.29622,-1.03605 -12.14741,-1.03605 z"
         style="font-style:normal;font-variant:normal;font-weight:bold;font-stretch:normal;font-size:medium;line-height:1.25;font-family:'Sitka Text';-inkscape-font-specification:'Sitka Text Bold';letter-spacing:0px;word-spacing:0px;fill:#d4aa00;fill-opacity:1;stroke:none;stroke-width:1.84828603" />
      <path
         inkscape:connector-curvature="0"
         id="path1037"
         d="m 765.99858,-720.87546 v -72.01819 h 11.5157 c 0.48131,0 0.90513,0.12435 1.37897,0.14111 l -1.40062,-13.2304 h -15.7502 l -21.8437,26.9915 v 36.87542 z"
         style="font-style:normal;font-variant:normal;font-weight:bold;font-stretch:normal;font-size:medium;line-height:1.25;font-family:'Sitka Text';-inkscape-font-specification:'Sitka Text Bold';letter-spacing:0px;word-spacing:0px;fill:#ff2a2a;fill-opacity:1;stroke:none;stroke-width:1.84828603" />
      <path
         inkscape:connector-curvature="0"
         id="path1035"
         d="m 797.93564,-694.88395 c 2.13851,-0.45267 4.33955,-0.77904 6.38963,-1.40426 7.46542,-2.26062 13.95893,-5.70518 19.4792,-10.33163 5.5202,-4.62646 9.85577,-10.46332 13.01021,-17.5082 3.15437,-7.09742 4.73257,-15.48048 4.73257,-25.154 0,-1.7024 -0.21725,-3.18825 -0.31016,-4.7976 l -27.82894,4.78314 c 0.021,0.79036 0.1446,1.48969 0.1446,2.29954 0,6.46654 -0.6301,12.24968 -1.89164,17.34935 -1.26175,5.04706 -3.20858,9.33254 -5.83728,12.85499 -2.5761,3.52237 -5.88639,6.20283 -9.9345,8.04292 -3.39209,1.51749 -7.45438,2.25078 -11.94532,2.48005 z"
         style="font-style:normal;font-variant:normal;font-weight:bold;font-stretch:normal;font-size:medium;line-height:1.25;font-family:'Sitka Text';-inkscape-font-specification:'Sitka Text Bold';letter-spacing:0px;word-spacing:0px;fill:#ff6600;fill-opacity:1;stroke:none;stroke-width:1.84828603" />
      <path
         inkscape:connector-curvature="0"
         id="path1033"
         d="m 732.74026,-702.71026 -7.90573,3.0287 v 6.78307 h 12.93435 z"
         style="font-style:normal;font-variant:normal;font-weight:bold;font-stretch:normal;font-size:medium;line-height:1.25;font-family:'Sitka Text';-inkscape-font-specification:'Sitka Text Bold';letter-spacing:0px;word-spacing:0px;fill:#00aa88;fill-opacity:1;stroke:none;stroke-width:1.84828603" />
      <path
         inkscape:connector-curvature="0"
         id="path1031"
         d="m 732.74026,-702.71026 5.02862,9.81177 h 42.58276 c 6.19963,0 11.98982,-0.80223 17.584,-1.98546 l -13.99212,-11.3857 c -0.79901,0.0419 -1.49458,0.20188 -2.32838,0.20188 h -15.61656 v -14.80797 l -26.09985,-21.24084 v 33.83953 c 0,1.15662 -0.292,2.02444 -0.86999,2.60271 -0.57841,0.57842 -1.26182,1.02745 -2.05043,1.34293 z"
         style="font-style:normal;font-variant:normal;font-weight:bold;font-stretch:normal;font-size:medium;line-height:1.25;font-family:'Sitka Text';-inkscape-font-specification:'Sitka Text Bold';letter-spacing:0px;word-spacing:0px;fill:#0044aa;fill-opacity:1;stroke:none;stroke-width:1.84828603" />
      <path
         inkscape:connector-curvature="0"
         id="path1029"
         d="m 744.06462,-805.98329 h -19.23009 v 6.78307 l 7.62414,2.92049 z"
         style="font-style:normal;font-variant:normal;font-weight:bold;font-stretch:normal;font-size:medium;line-height:1.25;font-family:'Sitka Text';-inkscape-font-specification:'Sitka Text Bold';letter-spacing:0px;word-spacing:0px;fill:#d45500;fill-opacity:1;stroke:none;stroke-width:1.84828603" />
      <path
         inkscape:connector-curvature="0"
         id="path833"
         d="m 744.06462,-805.98329 -11.60595,9.70356 4.51964,1.73272 c 0.78861,0.31575 1.47216,0.76102 2.05043,1.33929 0.57841,0.52602 0.86999,1.31302 0.86999,2.3645 v 11.85143 l 21.8437,-26.9915 z"
         style="font-style:normal;font-variant:normal;font-weight:bold;font-stretch:normal;font-size:medium;line-height:1.25;font-family:'Sitka Text';-inkscape-font-specification:'Sitka Text Bold';letter-spacing:0px;word-spacing:0px;fill:#660080;fill-opacity:1;stroke:none;stroke-width:1.84828603" />
    </g>
  </g>
</svg>
