<?xml version="1.0" standalone="no"?>
<!DOCTYPE svg PUBLIC "-//W3C//DTD SVG 20010904//EN"
 "http://www.w3.org/TR/2001/REC-SVG-20010904/DTD/svg10.dtd">
<svg version="1.0" xmlns="http://www.w3.org/2000/svg"
 width="1280.000000pt" height="1280.000000pt" viewBox="0 0 1280.000000 1280.000000"
 preserveAspectRatio="xMidYMid meet">
<g transform="translate(0.000000,1280.000000) scale(0.100000,-0.100000)"
fill="#000000" stroke="none">
<path d="M7035 10444 c-1483 -122 -2627 -607 -3505 -1484 -754 -753 -1187
-1578 -1304 -2485 -39 -299 -43 -610 -11 -840 52 -375 225 -831 382 -1005 55
-61 82 -69 198 -58 50 4 241 22 425 38 366 33 376 36 394 98 14 48 0 93 -59
188 -117 189 -174 324 -217 515 -20 92 -23 130 -23 334 0 261 11 350 75 600
104 407 307 835 625 1315 871 1318 1919 2064 3215 2290 126 22 355 50 409 50
l35 0 -75 -74 c-154 -151 -482 -545 -656 -787 -436 -610 -829 -1442 -1137
-2411 -75 -237 -126 -414 -311 -1088 -262 -952 -495 -1740 -607 -2055 -127
-359 -294 -587 -550 -754 -51 -33 -103 -69 -115 -80 -31 -27 -31 -81 0 -116
21 -24 36 -27 382 -75 486 -66 594 -74 985 -75 439 0 756 30 1108 104 355 76
1066 255 1232 310 926 309 1685 897 2272 1761 362 532 659 1208 792 1800 69
308 96 555 96 867 0 691 -163 1261 -508 1785 -321 487 -770 826 -1335 1008
-151 48 -818 232 -946 260 -125 28 -327 56 -484 69 -171 15 -583 12 -782 -5z
m1380 -445 c93 -9 123 -17 195 -49 548 -245 916 -707 1041 -1306 69 -333 78
-774 23 -1239 -130 -1109 -621 -2352 -1261 -3198 -212 -280 -510 -597 -710
-755 -217 -171 -478 -320 -748 -426 -132 -51 -148 -55 -273 -66 -132 -11 -617
-14 -715 -5 -227 21 -275 26 -294 31 -20 4 -12 14 68 86 251 225 470 520 644
868 184 366 326 750 600 1615 598 1888 1022 3024 1451 3885 132 264 150 311
140 362 -12 65 -38 77 -301 141 -132 32 -251 63 -265 68 -30 11 245 3 405 -12z"/>
</g>
</svg>
