<?xml version="1.0" standalone="no"?>
<!DOCTYPE svg PUBLIC "-//W3C//DTD SVG 20010904//EN"
 "http://www.w3.org/TR/2001/REC-SVG-20010904/DTD/svg10.dtd">
<svg version="1.0" xmlns="http://www.w3.org/2000/svg"
 width="1280.000000pt" height="1280.000000pt" viewBox="0 0 1280.000000 1280.000000"
 preserveAspectRatio="xMidYMid meet">
<g transform="translate(0.000000,1280.000000) scale(0.100000,-0.100000)"
fill="#000000" stroke="none">
<path d="M7660 11490 c-371 -66 -659 -220 -946 -505 -454 -450 -777 -1153
-938 -2040 -71 -394 -98 -674 -121 -1255 -18 -450 -22 -523 -41 -707 -19 -188
-32 -227 -91 -284 -69 -67 -114 -89 -343 -169 -314 -110 -703 -257 -821 -309
-396 -176 -849 -566 -1092 -936 -80 -123 -198 -366 -245 -505 -175 -514 -184
-1097 -26 -1580 110 -334 297 -624 581 -900 468 -455 1039 -706 1783 -782 192
-20 728 -17 915 5 339 41 476 73 1149 277 596 180 710 221 971 350 668 331
1253 872 1535 1420 188 366 266 784 214 1139 -20 137 -69 330 -104 406 -28 61
-79 118 -116 129 -11 3 -193 -10 -403 -29 -210 -19 -389 -35 -397 -35 -22 0
-102 -78 -130 -126 -30 -52 -30 -48 -14 -301 l13 -203 -33 -102 c-70 -214
-322 -678 -490 -904 -87 -116 -371 -403 -554 -559 -386 -330 -809 -600 -1234
-789 -88 -39 -108 -44 -202 -50 -197 -13 -451 21 -650 85 -341 110 -726 377
-887 614 -175 258 -252 601 -224 1002 25 372 112 686 285 1031 155 309 334
561 555 782 218 218 387 337 710 500 327 164 477 265 561 378 90 119 180 348
275 697 25 94 48 179 52 189 6 22 31 21 541 -14 306 -22 310 -21 357 20 11 10
43 25 71 34 118 38 266 148 473 350 644 630 1046 1233 1186 1782 140 545 53
988 -254 1295 -177 176 -273 227 -721 384 -184 65 -384 135 -443 156 -167 60
-279 79 -454 78 -97 0 -184 -7 -253 -19z m978 -955 c2 -74 -1 -174 -8 -222
-68 -526 -388 -1211 -812 -1741 -74 -92 -484 -552 -493 -552 -6 0 162 542 254
820 301 902 538 1381 832 1679 91 93 200 174 214 160 5 -5 12 -70 13 -144z"/>
</g>
</svg>
