<?xml version="1.0" standalone="no"?>
<!DOCTYPE svg PUBLIC "-//W3C//DTD SVG 20010904//EN"
 "http://www.w3.org/TR/2001/REC-SVG-20010904/DTD/svg10.dtd">
<svg version="1.0" xmlns="http://www.w3.org/2000/svg"
 width="1280.000000pt" height="1280.000000pt" viewBox="0 0 1280.000000 1280.000000"
 preserveAspectRatio="xMidYMid meet">
<g transform="translate(0.000000,1280.000000) scale(0.100000,-0.100000)"
fill="#000000" stroke="none">
<path d="M10290 10475 c-613 -111 -1303 -428 -2040 -938 -225 -155 -582 -427
-785 -595 -27 -23 -52 -42 -56 -42 -3 0 -16 37 -28 83 -56 203 -161 432 -261
565 -114 154 -264 274 -420 338 -71 29 -816 196 -957 215 -148 20 -388 -4
-619 -61 -360 -88 -725 -269 -1067 -527 -396 -300 -817 -767 -1162 -1288 -451
-680 -703 -1361 -777 -2095 -16 -157 -16 -593 0 -725 31 -255 91 -531 162
-745 59 -177 133 -351 155 -366 18 -11 40 -11 155 1 74 7 257 26 405 41 240
24 275 30 313 52 52 30 62 60 38 122 -190 500 -224 808 -145 1325 115 753 540
1706 1084 2430 552 733 1163 1230 1669 1356 l90 22 54 -59 c98 -108 171 -294
203 -524 18 -122 18 -593 1 -790 -13 -139 -46 -421 -58 -486 -3 -18 -44 -79
-101 -150 -143 -178 -424 -555 -565 -759 -737 -1063 -1168 -2032 -1298 -2917
-43 -297 -54 -647 -25 -825 42 -262 169 -413 344 -413 20 0 213 36 429 80 278
56 412 88 455 107 243 109 650 574 967 1103 585 978 938 2239 1045 3735 l15
210 107 104 c330 318 837 713 1301 1015 245 159 586 361 566 335 -67 -83 -501
-668 -607 -817 -521 -730 -855 -1321 -1117 -1977 -292 -733 -438 -1486 -416
-2148 18 -532 114 -919 314 -1267 278 -483 708 -740 1237 -740 236 0 329 21
1029 231 353 106 612 229 946 446 219 144 349 242 356 270 7 27 -19 149 -42
194 -27 54 -44 53 -374 -26 l-272 -65 -112 -79 c-277 -196 -499 -331 -725
-439 l-134 -65 -136 6 c-466 20 -730 247 -812 697 -23 126 -18 548 9 750 76
564 235 1162 519 1950 254 703 664 1661 905 2114 121 226 455 791 901 1522
154 252 165 280 130 323 -24 29 -570 211 -628 210 -22 0 -96 -11 -165 -24z"/>
</g>
</svg>
