<?xml version="1.0" standalone="no"?>
<!DOCTYPE svg PUBLIC "-//W3C//DTD SVG 20010904//EN"
 "http://www.w3.org/TR/2001/REC-SVG-20010904/DTD/svg10.dtd">
<svg version="1.0" xmlns="http://www.w3.org/2000/svg"
 width="1280.000000pt" height="1280.000000pt" viewBox="0 0 1280.000000 1280.000000"
 preserveAspectRatio="xMidYMid meet">
<g transform="translate(0.000000,1280.000000) scale(0.100000,-0.100000)"
fill="#000000" stroke="none">
<path d="M7595 10669 c-1001 -56 -1955 -373 -2793 -926 -675 -445 -1347 -1104
-1770 -1735 -355 -529 -589 -1102 -681 -1668 -77 -469 -68 -1084 25 -1608 66
-375 223 -848 299 -898 22 -14 41 -13 237 11 455 56 658 84 677 95 62 32 66
109 17 301 -90 348 -111 524 -111 929 0 328 10 452 56 720 134 777 529 1618
1074 2285 656 803 1611 1494 2498 1806 128 46 160 50 121 18 -81 -67 -412
-507 -653 -868 -370 -554 -675 -1229 -1005 -2226 -192 -580 -368 -1212 -586
-2100 -184 -752 -386 -1557 -501 -1995 -60 -231 -89 -358 -85 -375 4 -14 16
-35 27 -46 28 -28 23 -29 493 75 384 84 389 86 481 136 200 111 376 274 505
467 77 114 178 317 236 470 22 57 41 103 44 103 3 0 53 -58 112 -129 541 -652
1091 -1065 1595 -1196 149 -39 281 -55 466 -55 257 0 450 26 702 95 297 82
810 241 940 292 258 102 559 265 802 437 129 90 137 104 131 221 -3 77 -20
108 -64 125 -14 6 -121 -16 -338 -71 -174 -43 -322 -82 -329 -85 -7 -4 -68
-42 -137 -84 -209 -129 -513 -291 -638 -340 -51 -20 -296 -8 -392 20 -113 32
-265 110 -355 183 -117 95 -346 333 -546 567 -346 405 -606 663 -919 910 -58
45 -106 87 -108 91 -2 5 7 9 21 9 43 0 448 107 628 165 786 257 1433 644 2007
1199 617 599 989 1281 1099 2021 25 172 26 625 0 776 -70 416 -231 741 -502
1014 -217 219 -484 387 -790 498 -158 58 -889 273 -1021 301 -306 64 -616 85
-969 65z m998 -496 c69 -5 87 -11 165 -55 301 -172 506 -415 602 -713 131
-410 88 -965 -121 -1570 -130 -378 -347 -809 -588 -1170 -451 -675 -1081
-1274 -1636 -1557 -138 -70 -403 -178 -438 -178 -13 0 -13 6 -1 48 7 26 58
216 114 422 344 1272 678 2324 985 3100 189 480 360 835 550 1144 131 212 175
295 175 329 0 13 -10 39 -23 58 -22 33 -29 36 -215 83 -105 27 -190 52 -187
54 18 18 415 21 618 5z"/>
</g>
</svg>
