<?xml version="1.0" standalone="no"?>
<!DOCTYPE svg PUBLIC "-//W3C//DTD SVG 20010904//EN"
 "http://www.w3.org/TR/2001/REC-SVG-20010904/DTD/svg10.dtd">
<svg version="1.0" xmlns="http://www.w3.org/2000/svg"
 width="1280.000000pt" height="1280.000000pt" viewBox="0 0 1280.000000 1280.000000"
 preserveAspectRatio="xMidYMid meet">
<g transform="translate(0.000000,1280.000000) scale(0.100000,-0.100000)"
fill="#000000" stroke="none">
<path d="M5830 10533 c-512 -38 -1031 -179 -1465 -396 -534 -267 -1065 -721
-1403 -1200 -252 -356 -458 -814 -568 -1260 -131 -537 -107 -1137 67 -1674
103 -317 328 -738 482 -900 77 -82 112 -96 211 -89 45 3 216 15 381 26 408 27
403 26 437 60 24 24 28 37 28 83 0 47 -6 64 -51 138 -95 154 -111 182 -175
311 -176 351 -274 680 -326 1093 -7 58 -12 210 -12 365 1 299 17 440 78 682
176 697 687 1314 1367 1652 382 190 798 289 1304 311 311 14 953 -28 1785
-115 157 -16 340 -36 408 -42 l122 -13 -50 -69 c-175 -240 -644 -1104 -820
-1511 -171 -396 -316 -890 -510 -1735 -119 -523 -303 -1217 -329 -1243 -4 -4
-46 10 -92 33 -146 71 -448 160 -659 194 -234 39 -400 43 -737 21 -859 -58
-958 -68 -1134 -119 -282 -82 -503 -209 -689 -396 -219 -221 -360 -476 -421
-760 -30 -137 -32 -414 -6 -560 96 -519 472 -890 1016 -1000 165 -33 308 -43
539 -37 289 7 273 4 1109 196 401 91 599 165 854 317 212 127 363 247 570 453
218 217 350 380 534 656 172 259 263 418 395 689 262 537 419 1039 780 2491
223 897 355 1373 537 1935 42 129 81 266 87 304 l11 68 70 -6 c148 -12 665
-17 800 -8 227 16 278 42 383 195 111 162 192 318 199 380 7 67 -14 119 -59
147 -18 11 -152 59 -298 106 -146 47 -292 94 -325 105 -56 18 -101 19 -750 23
-460 3 -782 9 -965 20 -885 51 -1864 86 -2330 84 -184 -1 -355 -3 -380 -5z
m-440 -5779 c158 -19 314 -53 464 -104 64 -21 136 -41 159 -45 23 -3 182 10
352 29 171 19 311 33 313 31 1 -1 -17 -56 -42 -121 -176 -473 -347 -813 -531
-1059 -198 -264 -446 -479 -721 -622 l-106 -55 -134 11 c-178 14 -317 44 -439
92 -274 109 -463 292 -539 520 -90 269 -26 619 158 857 145 189 400 360 681
457 112 38 130 39 385 9z"/>
</g>
</svg>
